<svg viewBox="0 0 68 42" fill="none" xmlns="http://www.w3.org/2000/svg">
<path d="M33 35.1421C35.7854 37.9392 39.3342 39.844 43.1977 40.6157C47.0612 41.3874 51.0658 40.9913 54.7051 39.4776C58.3444 37.9638 61.4549 35.4004 63.6434 32.1114C65.8319 28.8224 67 24.9556 67 21C67 17.0444 65.8319 13.1776 63.6434 9.8886C61.4549 6.59962 58.3444 4.03617 54.7051 2.52242C51.0658 1.00866 47.0612 0.612598 43.1977 1.3843C39.3342 2.15601 35.7854 4.06082 33 6.85787" stroke-width="2" stroke-linecap="round"/>
<path d="M3.92871 21L51.0716 21" stroke-width="2" stroke-linecap="round" stroke-linejoin="round"/>
<path d="M45.5713 15.75L51.0713 21L45.5713 26.25"  stroke-width="2" stroke-linecap="round" stroke-linejoin="round"/>
</svg>
