<svg viewBox="0 0 21 18" fill="none" xmlns="http://www.w3.org/2000/svg">
<path d="M11.3 9.22C11.8336 8.75813 12.2616 8.18688 12.5549 7.54502C12.8482 6.90316 13 6.20571 13 5.5C13 4.17392 12.4732 2.90215 11.5355 1.96447C10.5979 1.02678 9.32608 0.5 8 0.5C6.67392 0.5 5.40215 1.02678 4.46447 1.96447C3.52678 2.90215 3 4.17392 3 5.5C2.99999 6.20571 3.1518 6.90316 3.44513 7.54502C3.73845 8.18688 4.16642 8.75813 4.7 9.22C3.30014 9.85388 2.11247 10.8775 1.27898 12.1685C0.445495 13.4596 0.00147185 14.9633 0 16.5C0 16.7652 0.105357 17.0196 0.292893 17.2071C0.48043 17.3946 0.734784 17.5 1 17.5C1.26522 17.5 1.51957 17.3946 1.70711 17.2071C1.89464 17.0196 2 16.7652 2 16.5C2 14.9087 2.63214 13.3826 3.75736 12.2574C4.88258 11.1321 6.4087 10.5 8 10.5C9.5913 10.5 11.1174 11.1321 12.2426 12.2574C13.3679 13.3826 14 14.9087 14 16.5C14 16.7652 14.1054 17.0196 14.2929 17.2071C14.4804 17.3946 14.7348 17.5 15 17.5C15.2652 17.5 15.5196 17.3946 15.7071 17.2071C15.8946 17.0196 16 16.7652 16 16.5C15.9985 14.9633 15.5545 13.4596 14.721 12.1685C13.8875 10.8775 12.6999 9.85388 11.3 9.22ZM8 8.5C7.40666 8.5 6.82664 8.32405 6.33329 7.99441C5.83994 7.66476 5.45542 7.19623 5.22836 6.64805C5.0013 6.09987 4.94189 5.49667 5.05764 4.91473C5.1734 4.33279 5.45912 3.79824 5.87868 3.37868C6.29824 2.95912 6.83279 2.6734 7.41473 2.55764C7.99667 2.44189 8.59987 2.5013 9.14805 2.72836C9.69623 2.95542 10.1648 3.33994 10.4944 3.83329C10.8241 4.32664 11 4.90666 11 5.5C11 6.29565 10.6839 7.05871 10.1213 7.62132C9.55871 8.18393 8.79565 8.5 8 8.5ZM19.71 6.13C19.617 6.03627 19.5064 5.96188 19.3846 5.91111C19.2627 5.86034 19.132 5.8342 19 5.8342C18.868 5.8342 18.7373 5.86034 18.6154 5.91111C18.4936 5.96188 18.383 6.03627 18.29 6.13L16.29 8.13L15.67 7.5C15.577 7.40627 15.4664 7.33188 15.3446 7.28111C15.2227 7.23034 15.092 7.2042 14.96 7.2042C14.828 7.2042 14.6973 7.23034 14.5754 7.28111C14.4536 7.33188 14.343 7.40627 14.25 7.5C14.0637 7.68736 13.9592 7.94081 13.9592 8.205C13.9592 8.46919 14.0637 8.72264 14.25 8.91L15.59 10.25C15.7774 10.4363 16.0308 10.5408 16.295 10.5408C16.5592 10.5408 16.8126 10.4363 17 10.25L19.67 7.58C19.771 7.48932 19.8524 7.37904 19.9094 7.25588C19.9664 7.13272 19.9977 6.99924 20.0014 6.86359C20.0052 6.72794 19.9813 6.59294 19.9312 6.46682C19.8811 6.34071 19.8058 6.22611 19.71 6.13Z" fill="#1F1E1E"/>
</svg>
